<svg width="32" height="32" viewBox="0 0 32 32" fill="none" xmlns="http://www.w3.org/2000/svg">
  <rect width="32" height="32" rx="6" fill="#ffffff"/>
  <g fill="#2c3e50" stroke="#2c3e50" stroke-width="0.5">
    <path d="M 16 8 C 13.5 8, 12 9, 11 10.5 C 10.2 9.8, 9.5 9.8, 9.2 11 C 9.2 12.5, 9.8 13.5, 11 14 L 11 17 L 21 17 L 21 14 C 22.2 13.5, 22.8 12.5, 22.8 11 C 22.5 9.8, 21.8 9.8, 21 10.5 C 20 9, 18.5 8, 16 8 Z"/>
    <rect x="10.5" y="17" width="11" height="2.5" rx="0.3"/>
    <path d="M 10 19.5 L 10 20.5 C 10 21.2, 10.5 22, 11 22 L 21 22 C 21.5 22, 22 21.2, 22 20.5 L 22 19.5 L 10 19.5 Z"/>
  </g>
</svg>
